<svg height="512" viewBox="0 0 128 128" width="512" xmlns="http://www.w3.org/2000/svg"><g><path d="m6.306 27.554h67.68v53.313h-67.68z" fill="#fc883a"/><path d="m121.694 80.867v-21.023l-12.986-2.633-12.828-21.795h-21.894v45.451z" fill="#3ea2e5"/><path d="m82.064 27.554h6.099v7.862h-6.099z" fill="#fc883a"/><path d="m113.38 65.979h8.314v6.741h-8.314z" fill="#dfeef4"/><path d="m100.266 42.868h-18.202v14.343h26.644z" fill="#dfeef4"/><path d="m6.306 80.867h115.387v12.193h-115.387z" fill="#3ea2e5"/><circle cx="29.86" cy="86.936" fill="#6d7a84" r="13.51"/><circle cx="98.14" cy="86.936" fill="#6d7a84" r="13.51"/><circle cx="29.86" cy="86.936" fill="#dfeef4" r="5.028"/><circle cx="98.14" cy="86.936" fill="#dfeef4" r="5.028"/><path d="m86.069 65.75h-4.006a1.75 1.75 0 1 1 0-3.5h4.006a1.75 1.75 0 1 1 0 3.5z" fill="#1892d6"/><g fill="#e57b33"><path d="m33.463 37.536h-17.342a1.75 1.75 0 1 1 0-3.5h17.342a1.75 1.75 0 0 1 0 3.5z"/><path d="m43.993 37.536h-3.593a1.75 1.75 0 0 1 0-3.5h3.594a1.75 1.75 0 0 1 0 3.5z"/></g></g></svg>